<svg xmlns:dc="http://purl.org/dc/elements/1.1/" xmlns:cc="http://creativecommons.org/ns#" xmlns:rdf="http://www.w3.org/1999/02/22-rdf-syntax-ns#" xmlns:svg="http://www.w3.org/2000/svg" xmlns="http://www.w3.org/2000/svg" xmlns:sodipodi="http://sodipodi.sourceforge.net/DTD/sodipodi-0.dtd" xmlns:inkscape="http://www.inkscape.org/namespaces/inkscape" version="1.1" x="0px" y="0px" viewBox="0 0 100 125"><g transform="translate(0,-952.36218)"><path style="text-indent:0;text-transform:none;direction:ltr;block-progression:tb;baseline-shift:baseline;color:#000000;enable-background:accumulate;" d="m 44.9688,958.36217 c -14.8873,0 -26.9688,12.09798 -26.9688,27 0,3.56391 0.95754,7.68378 2.125,10.71875 7.68756,16.36138 15.3771,32.75188 23.0625,49.12498 0.3198,0.6852 1.0563,1.1563 1.8125,1.1563 0.7562,0 1.4927,-0.4711 1.8125,-1.1563 2.9361,-6.2341 5.8578,-12.476 8.7813,-18.7187 2.8028,2.4126 6.4325,3.875 10.4062,3.875 8.8129,0 16,-7.1871 16,-16 0,-7.8944 -5.7758,-14.46217 -13.3125,-15.75004 0.3941,-0.84486 0.79,-1.68901 1.1875,-2.53125 1.1757,-3.04053 2.125,-7.15612 2.125,-10.71875 0,-14.90803 -12.1438,-27 -27.0312,-27 z m 0,4 c 12.7294,0 23.0312,10.25661 23.0312,23 0,2.74116 -0.8492,6.57639 -1.8125,9.125 -0.6484,1.38377 -1.2632,2.66611 -1.875,3.96875 C 56.2909,999.30643 50,1006.1213 50,1014.3622 c 0,3.28 1.0144,6.3321 2.7188,8.875 -2.6207,5.5731 -5.4247,11.4915 -7.7188,16.375 C 37.5957,1023.8997 30.1405,1007.9515 23.8125,994.48717 22.85264,991.9351 22,988.09928 22,985.36217 c 0,-12.7494 10.2396,-23 22.9688,-23 z m 0.031,9 c -7.7069,0 -14,6.28738 -14,14 0,7.71262 6.293,14 14,14 7.707,0 14,-6.28131 14,-14 0,-7.71869 -6.293,-14 -14,-14 z m 0,4 c 5.549,0 10,4.44601 10,10 0,5.55399 -4.451,10 -10,10 -5.5489,0 -10,-4.43994 -10,-10 0,-5.56006 4.451,-10 10,-10 z m 21,27.00003 c 6.6511,0 12,5.3489 12,12 0,6.6511 -5.3489,12 -12,12 -6.6511,0 -12,-5.3489 -12,-12 0,-6.6511 5.3489,-12 12,-12 z m 2,5 c -0.5049,0 -1.0158,0.2031 -1.4062,0.5937 -0.7811,0.7811 -0.7811,2.0314 0,2.8125 l 1.5939,1.5938 -9.1875,0 c -1.1046,0 -2,0.8953 -2,2 0,1.1047 0.8954,2 2,2 l 9.1875,0 -1.5937,1.5937 c -0.7811,0.7812 -0.7811,2.0313 0,2.8125 0.7809,0.7811 2.008,0.7967 2.8124,0 1.637,-1.6269 3.4238,-3.3331 4.9376,-4.9687 0.3908,-0.3651 0.6562,-0.8604 0.6562,-1.4375 0,-0.5771 -0.2653,-1.0725 -0.6562,-1.4375 -1.4837,-1.6649 -3.3364,-3.3065 -4.9376,-4.9688 -0.4022,-0.4023 -0.9013,-0.5966 -1.4062,-0.5937 z" fill="#000000" fill-opacity="1" stroke="none" marker="none" visibility="visible" display="inline" overflow="visible"/></g></svg>